<?xml version="1.0" encoding="UTF-8" ?>
<!DOCTYPE svg PUBLIC "-//W3C//DTD SVG 1.1//EN" "http://www.w3.org/Graphics/SVG/1.1/DTD/svg11.dtd">
<svg width="120pt" height="120pt" viewBox="0 0 120 120" version="1.1" xmlns="http://www.w3.org/2000/svg">
<g id="#b5b1a6ff">
<path fill="#b5b1a6" opacity="1.00" d=" M 0.00 0.00 L 55.09 0.00 C 53.63 2.58 52.54 5.34 51.24 8.00 C 50.86 -0.32 40.32 4.48 35.33 4.40 C 26.38 5.71 19.88 12.12 12.27 16.32 C 6.64 20.09 5.33 27.38 0.00 31.42 L 0.00 0.00 Z" />
</g>
<g id="#181614ff">
<path fill="#181614" opacity="1.00" d=" M 55.09 0.00 L 63.56 0.00 C 61.72 0.53 59.84 0.92 57.97 1.33 C 56.71 1.43 56.61 3.10 55.95 3.92 C 52.95 7.75 59.45 4.77 61.34 6.76 C 60.62 9.03 52.66 4.62 53.99 9.02 C 60.73 11.39 66.85 6.16 68.45 0.00 L 71.92 0.00 C 68.53 5.18 76.89 3.19 78.47 0.00 L 82.31 0.00 C 78.83 2.27 75.49 4.83 73.64 8.66 C 70.98 12.23 72.79 6.71 72.83 4.92 C 65.52 3.64 63.14 15.54 55.57 10.62 C 42.12 12.82 27.31 31.65 37.90 44.13 C 39.33 40.80 36.98 37.53 36.80 34.19 C 38.97 34.71 42.03 37.35 43.01 33.98 C 44.01 30.63 46.26 34.01 48.03 34.86 C 50.89 34.81 44.50 23.05 49.80 23.96 C 47.13 31.85 57.74 40.24 64.83 35.80 C 70.54 34.69 71.25 28.91 75.00 25.80 C 74.95 28.29 74.01 30.74 74.27 33.22 C 77.60 36.60 82.19 36.94 86.70 36.34 C 88.16 42.76 97.49 39.48 93.27 47.72 C 94.77 49.71 97.18 51.19 99.75 51.01 C 100.82 49.68 100.66 46.87 102.88 47.01 C 104.92 49.04 104.45 52.81 101.29 53.25 C 94.22 54.42 97.10 64.44 98.60 68.94 C 105.45 70.71 113.89 76.50 120.00 69.88 L 120.00 75.09 C 114.40 76.17 106.91 73.89 104.18 80.22 C 101.81 81.97 104.29 83.65 105.60 85.13 C 109.39 90.14 113.46 95.55 114.04 101.99 C 113.30 102.00 111.83 102.01 111.09 102.02 L 110.15 101.97 C 109.06 93.22 101.14 78.37 90.79 83.63 C 88.74 85.15 88.48 88.76 85.44 88.64 C 86.00 92.50 83.28 94.44 80.34 95.55 C 78.89 98.14 81.71 100.14 83.11 101.97 C 80.43 101.98 77.76 101.97 75.08 101.97 L 74.22 101.93 C 73.63 97.69 69.81 96.00 65.94 95.91 C 67.57 97.99 69.28 99.98 71.01 101.98 C 68.95 101.99 66.89 102.04 64.83 102.04 C 63.50 102.00 62.17 101.97 60.84 101.96 C 60.27 101.94 59.12 101.91 58.55 101.90 L 59.09 101.12 C 61.49 100.61 69.69 102.44 65.27 98.97 C 63.46 97.28 63.88 94.88 66.24 94.03 C 71.90 95.06 69.93 88.72 66.07 93.42 C 68.47 89.51 60.61 92.68 58.69 89.13 C 59.49 92.65 62.97 93.35 66.07 93.42 L 66.24 94.03 C 61.28 95.95 58.63 92.71 57.08 88.92 C 56.29 93.21 55.97 97.59 55.94 101.95 C 51.73 102.03 47.53 102.01 43.32 102.14 C 35.60 101.98 27.88 101.95 20.15 102.03 C 18.34 102.01 14.72 101.97 12.91 101.95 C 13.01 101.33 13.21 100.08 13.31 99.45 C 17.69 95.63 11.11 92.79 9.96 89.13 C 11.76 84.67 9.65 78.77 4.85 82.02 C 1.51 82.87 1.96 79.79 1.94 77.46 C 5.41 75.70 0.95 72.90 2.14 70.26 C 3.65 68.34 6.31 67.61 8.68 67.70 C 8.68 65.74 7.48 63.50 8.96 61.82 C 10.30 62.17 11.66 62.22 13.04 61.96 C 16.71 64.24 17.10 57.67 20.76 59.10 C 25.22 62.74 26.57 68.54 30.11 72.88 C 31.09 78.30 32.13 84.22 27.57 88.27 C 29.21 92.09 29.79 97.41 33.80 99.36 C 39.13 102.57 44.38 97.34 44.15 92.21 C 44.84 89.53 45.47 86.82 46.33 84.19 C 48.06 82.37 45.85 80.47 43.87 81.17 C 35.53 74.50 36.30 63.44 38.27 54.10 C 39.39 51.75 40.93 48.37 38.02 46.95 C 29.52 41.46 28.86 27.22 36.94 20.81 C 39.47 14.40 46.65 12.57 51.24 8.00 C 52.54 5.34 53.63 2.58 55.09 0.00 M 45.11 38.83 C 49.73 38.40 49.29 44.59 52.71 46.41 C 51.09 53.24 43.26 51.24 41.12 45.84 C 41.99 55.46 35.73 66.22 41.99 75.02 C 43.62 78.74 50.21 82.28 47.05 75.84 C 49.95 77.70 51.12 82.80 55.41 81.61 C 65.18 79.29 57.92 82.27 55.88 83.74 C 58.31 84.15 60.71 84.86 63.18 84.93 C 63.48 87.22 67.55 86.77 68.91 85.51 C 72.58 86.46 76.39 85.96 80.09 85.49 C 81.43 86.80 85.54 87.24 85.81 84.93 C 89.78 83.08 93.25 76.15 98.94 80.14 C 102.64 80.47 108.62 71.46 102.11 73.28 C 87.29 70.73 98.72 49.39 87.39 42.54 C 81.02 40.24 74.26 35.02 67.11 38.15 C 60.09 42.14 51.14 34.15 45.11 38.83 M 41.04 39.07 C 40.65 41.94 39.75 45.53 43.38 44.66 C 51.38 48.32 47.89 38.94 43.24 40.88 C 44.49 38.72 42.96 38.66 41.04 39.07 M 42.90 45.91 C 43.98 48.52 46.40 49.55 49.12 49.07 C 47.55 47.37 44.98 46.85 42.90 45.91 M 17.91 62.98 C 21.47 65.75 23.26 73.01 18.12 74.91 C 17.50 70.85 17.23 64.74 12.04 63.09 C 5.63 63.97 14.19 66.45 13.98 70.08 C 13.23 81.83 14.57 70.08 10.37 69.59 C 5.16 66.01 0.10 77.00 9.78 72.14 C 14.87 79.11 4.07 74.64 3.93 79.96 C 7.03 78.09 13.44 80.01 11.42 84.34 C 9.82 89.04 13.99 92.19 17.02 94.96 C 20.84 92.83 25.94 91.55 25.61 86.32 C 29.32 84.72 29.18 80.18 28.87 76.78 C 30.90 72.98 20.87 68.18 25.52 76.61 C 25.73 81.34 19.99 83.30 16.90 86.08 C 17.04 82.05 20.85 80.59 23.85 78.82 C 23.12 75.51 22.53 71.70 24.94 68.97 C 24.02 66.84 20.16 57.98 17.91 62.98 M 60.85 88.05 C 61.63 90.35 63.98 90.15 65.99 90.01 C 67.02 86.66 62.73 88.35 60.85 88.05 Z" />
</g>
<g id="#888374ff">
<path fill="#888374" opacity="1.00" d=" M 63.56 0.00 L 68.45 0.00 C 66.85 6.16 60.73 11.39 53.99 9.02 C 52.66 4.62 60.62 9.03 61.34 6.76 C 59.45 4.77 52.95 7.75 55.95 3.92 C 64.74 7.16 64.05 2.69 57.97 1.33 C 59.84 0.92 61.72 0.53 63.56 0.00 Z" />
</g>
<g id="#757471ff">
<path fill="#757471" opacity="1.00" d=" M 71.92 0.00 L 78.47 0.00 C 76.89 3.19 68.53 5.18 71.92 0.00 Z" />
</g>
<g id="#232122ff">
<path fill="#232122" opacity="1.00" d=" M 82.31 0.00 L 86.95 0.00 C 87.24 3.02 85.12 9.71 89.59 6.71 C 98.62 2.62 90.75 14.50 86.08 12.13 C 87.56 15.52 93.79 15.28 97.73 14.04 C 99.25 21.63 105.33 13.66 109.08 16.74 C 108.08 18.22 109.36 19.82 109.75 21.29 C 107.02 23.81 102.56 15.16 104.65 24.67 C 101.75 28.39 93.61 22.60 92.94 27.86 C 101.57 26.69 98.77 37.73 105.97 39.02 C 108.98 40.94 112.12 38.07 114.94 36.99 C 116.62 37.77 118.31 38.56 120.00 39.32 L 120.00 63.80 C 114.80 70.91 105.43 64.99 98.60 68.94 C 97.10 64.44 94.22 54.42 101.29 53.25 C 104.45 52.81 104.92 49.04 102.88 47.01 C 100.66 46.87 100.82 49.68 99.75 51.01 C 97.18 51.19 94.77 49.71 93.27 47.72 C 97.49 39.48 88.16 42.76 86.70 36.34 C 82.19 36.94 77.60 36.60 74.27 33.22 C 74.01 30.74 74.95 28.29 75.00 25.80 C 71.25 28.91 70.54 34.69 64.83 35.80 C 57.74 40.24 47.13 31.85 49.80 23.96 C 44.50 23.05 50.89 34.81 48.03 34.86 C 46.26 34.01 44.01 30.63 43.01 33.98 C 42.03 37.35 38.97 34.71 36.80 34.19 C 36.98 37.53 39.33 40.80 37.90 44.13 C 27.31 31.65 42.12 12.82 55.57 10.62 C 63.14 15.54 65.52 3.64 72.83 4.92 C 72.79 6.71 70.98 12.23 73.64 8.66 C 75.49 4.83 78.83 2.27 82.31 0.00 Z" />
</g>
<g id="#12100fff">
<path fill="#12100f" opacity="1.00" d=" M 86.95 0.00 L 88.67 0.00 C 90.05 4.27 95.48 3.42 97.42 0.00 L 100.61 0.00 C 102.86 1.55 106.07 2.24 107.30 4.90 C 104.59 4.07 102.17 1.87 99.24 2.12 C 95.79 4.66 101.49 5.65 103.24 6.84 C 100.61 6.90 97.10 4.86 95.55 7.97 C 94.66 9.28 94.25 12.69 96.84 11.56 C 99.91 13.92 103.41 16.21 107.07 13.40 C 109.89 9.16 112.13 4.56 114.37 0.00 L 118.15 0.00 C 116.47 2.76 114.69 5.50 113.55 8.53 C 116.44 10.87 118.19 14.21 120.00 17.40 L 120.00 21.55 C 115.23 20.13 116.43 13.87 112.43 11.64 C 109.57 8.90 111.90 16.03 109.08 16.74 C 105.33 13.66 99.25 21.63 97.73 14.04 C 93.79 15.28 87.56 15.52 86.08 12.13 C 90.75 14.50 98.62 2.62 89.59 6.71 C 85.12 9.71 87.24 3.02 86.95 0.00 Z" />
</g>
<g id="#a29d98ff">
<path fill="#a29d98" opacity="1.00" d=" M 88.67 0.00 L 97.42 0.00 C 95.48 3.42 90.05 4.27 88.67 0.00 Z" />
</g>
<g id="#817d6dff">
<path fill="#817d6d" opacity="1.00" d=" M 100.61 0.00 L 111.36 0.00 C 110.38 4.02 102.46 10.91 107.07 13.40 C 103.41 16.21 99.91 13.92 96.84 11.56 C 98.97 11.35 101.09 11.66 103.21 11.81 C 100.70 10.44 98.04 9.37 95.55 7.97 C 97.10 4.86 100.61 6.90 103.24 6.84 C 101.49 5.65 95.79 4.66 99.24 2.12 C 102.17 1.87 104.59 4.07 107.30 4.90 C 106.07 2.24 102.86 1.55 100.61 0.00 Z" />
</g>
<g id="#bab9a1ff">
<path fill="#bab9a1" opacity="1.00" d=" M 111.36 0.00 L 114.37 0.00 C 112.13 4.56 109.89 9.16 107.07 13.40 C 102.46 10.91 110.38 4.02 111.36 0.00 Z" />
</g>
<g id="#746f69ff">
<path fill="#746f69" opacity="1.00" d=" M 118.15 0.00 L 120.00 0.00 L 120.00 17.40 C 118.19 14.21 116.44 10.87 113.55 8.53 C 114.69 5.50 116.47 2.76 118.15 0.00 Z" />
</g>
<g id="#545142ff">
<path fill="#545142" opacity="1.00" d=" M 55.95 3.92 C 56.61 3.10 56.71 1.43 57.97 1.33 C 64.05 2.69 64.74 7.16 55.95 3.92 Z" />
</g>
<g id="#c3beb6ff">
<path fill="#c3beb6" opacity="1.00" d=" M 35.33 4.40 C 40.32 4.48 50.86 -0.32 51.24 8.00 C 46.65 12.57 39.47 14.40 36.94 20.81 C 37.25 16.57 30.75 19.16 28.81 20.81 C 14.95 28.47 6.19 44.77 9.69 60.66 C 9.51 60.95 9.14 61.53 8.96 61.82 C 7.48 63.50 8.68 65.74 8.68 67.70 C 6.31 67.61 3.65 68.34 2.14 70.26 C 0.95 72.90 5.41 75.70 1.94 77.46 C 1.29 76.16 0.64 74.86 0.00 73.56 L 0.00 31.42 C 5.33 27.38 6.64 20.09 12.27 16.32 C 19.88 12.12 26.38 5.71 35.33 4.40 Z" />
</g>
<g id="#3f3c33ff">
<path fill="#3f3c33" opacity="1.00" d=" M 96.84 11.56 C 94.25 12.69 94.66 9.28 95.55 7.97 C 98.04 9.37 100.70 10.44 103.21 11.81 C 101.09 11.66 98.97 11.35 96.84 11.56 Z" />
</g>
<g id="#353432ff">
<path fill="#353432" opacity="1.00" d=" M 109.08 16.74 C 111.90 16.03 109.57 8.90 112.43 11.64 C 116.43 13.87 115.23 20.13 120.00 21.55 L 120.00 39.32 C 118.31 38.56 116.62 37.77 114.94 36.99 C 120.40 32.08 115.69 26.23 114.33 20.74 C 114.04 18.02 111.12 21.08 109.75 21.29 C 109.36 19.82 108.08 18.22 109.08 16.74 Z" />
</g>
<g id="#d4cfc8ff">
<path fill="#d4cfc8" opacity="1.00" d=" M 28.81 20.81 C 30.75 19.16 37.25 16.57 36.94 20.81 C 28.86 27.22 29.52 41.46 38.02 46.95 C 38.08 48.74 38.21 52.32 38.27 54.10 C 36.30 63.44 35.53 74.50 43.87 81.17 C 44.59 82.25 45.39 83.28 46.33 84.19 C 45.47 86.82 44.84 89.53 44.15 92.21 C 40.20 91.91 34.70 91.65 33.64 86.87 C 35.35 81.64 33.61 76.68 30.11 72.88 C 26.57 68.54 25.22 62.74 20.76 59.10 C 17.10 57.67 16.71 64.24 13.04 61.96 C 12.12 61.03 11.01 60.59 9.69 60.66 C 6.19 44.77 14.95 28.47 28.81 20.81 Z" />
</g>
<g id="#13100fff">
<path fill="#13100f" opacity="1.00" d=" M 109.75 21.29 C 111.12 21.08 114.04 18.02 114.33 20.74 C 115.69 26.23 120.40 32.08 114.94 36.99 C 112.12 38.07 108.98 40.94 105.97 39.02 C 98.77 37.73 101.57 26.69 92.94 27.86 C 93.61 22.60 101.75 28.39 104.65 24.67 C 102.56 15.16 107.02 23.81 109.75 21.29 M 101.25 28.41 C 100.81 31.21 103.21 35.97 105.77 36.72 C 108.88 39.41 113.84 35.96 115.03 32.76 C 116.84 33.08 116.85 28.93 115.06 29.20 C 114.84 26.50 112.96 22.84 109.85 22.96 C 106.97 24.76 104.34 26.95 101.25 28.41 Z" />
</g>
<g id="#a39186ff">
<path fill="#a39186" opacity="1.00" d=" M 101.25 28.41 C 104.34 26.95 106.97 24.76 109.85 22.96 C 113.62 28.40 114.42 36.77 105.77 36.72 C 103.21 35.97 100.81 31.21 101.25 28.41 Z" />
</g>
<g id="#d6c3baff">
<path fill="#d6c3ba" opacity="1.00" d=" M 109.85 22.96 C 112.96 22.84 114.84 26.50 115.06 29.20 C 114.98 30.39 114.97 31.58 115.03 32.76 C 113.84 35.96 108.88 39.41 105.77 36.72 C 114.42 36.77 113.62 28.40 109.85 22.96 Z" />
</g>
<g id="#7f7371ff">
<path fill="#7f7371" opacity="1.00" d=" M 115.06 29.20 C 116.85 28.93 116.84 33.08 115.03 32.76 C 114.97 31.58 114.98 30.39 115.06 29.20 Z" />
</g>
<g id="#a39288ff">
<path fill="#a39288" opacity="1.00" d=" M 45.11 38.83 C 51.14 34.15 60.09 42.14 67.11 38.15 C 74.26 35.02 81.02 40.24 87.39 42.54 C 98.72 49.39 87.29 70.73 102.11 73.28 C 100.49 75.25 96.69 77.29 98.94 80.14 C 93.25 76.15 89.78 83.08 85.81 84.93 C 84.38 85.07 81.52 85.35 80.09 85.49 C 76.39 85.96 72.58 86.46 68.91 85.51 C 67.48 85.36 64.62 85.07 63.18 84.93 C 60.71 84.86 58.31 84.15 55.88 83.74 C 57.92 82.27 65.18 79.29 55.41 81.61 C 51.12 82.80 49.95 77.70 47.05 75.84 C 50.21 82.28 43.62 78.74 41.99 75.02 C 35.73 66.22 41.99 55.46 41.12 45.84 C 43.26 51.24 51.09 53.24 52.71 46.41 C 49.29 44.59 49.73 38.40 45.11 38.83 M 65.61 45.51 C 64.52 46.93 58.83 43.33 59.79 47.08 C 63.15 48.11 65.25 51.01 67.37 53.60 C 70.99 52.42 74.84 50.39 78.61 51.93 C 77.89 49.51 81.98 45.69 77.94 45.01 C 74.67 46.36 70.37 45.12 75.72 43.59 C 78.51 44.10 81.32 44.57 84.13 44.93 C 82.94 42.82 80.85 41.11 78.31 42.19 C 73.78 41.67 69.73 44.05 65.61 45.51 M 56.85 44.89 C 56.16 46.50 58.98 49.30 59.79 47.08 C 58.40 46.43 57.45 41.15 56.85 44.89 M 51.26 55.17 C 48.38 56.61 49.23 59.50 49.88 62.00 C 49.05 65.48 49.46 75.65 45.16 69.91 C 44.26 64.98 42.56 72.24 45.37 72.52 C 49.71 73.38 50.35 79.59 55.22 79.56 C 59.10 79.02 63.49 76.05 64.09 71.92 C 61.46 74.08 58.47 77.11 54.64 74.41 C 48.79 72.67 50.32 63.81 54.10 61.16 C 59.91 62.29 54.79 53.36 51.26 55.17 Z" />
</g>
<g id="#ab9b93ff">
<path fill="#ab9b93" opacity="1.00" d=" M 41.04 39.07 C 42.96 38.66 44.49 38.72 43.24 40.88 C 47.89 38.94 51.38 48.32 43.38 44.66 C 39.75 45.53 40.65 41.94 41.04 39.07 Z" />
</g>
<g id="#24201eff">
<path fill="#24201e" opacity="1.00" d=" M 65.61 45.51 C 69.73 44.05 73.78 41.67 78.31 42.19 C 77.44 42.66 76.58 43.13 75.72 43.59 C 70.37 45.12 74.67 46.36 77.94 45.01 C 81.98 45.69 77.89 49.51 78.61 51.93 C 74.84 50.39 70.99 52.42 67.37 53.60 C 65.25 51.01 63.15 48.11 59.79 47.08 C 58.83 43.33 64.52 46.93 65.61 45.51 M 66.24 47.24 C 63.15 49.29 68.86 51.97 71.06 51.09 C 69.37 50.08 68.17 46.87 66.24 47.24 M 76.23 47.20 C 75.72 47.86 72.55 50.44 74.91 50.00 C 77.42 51.28 79.75 45.67 76.23 47.20 Z" />
</g>
<g id="#5e4e47ff">
<path fill="#5e4e47" opacity="1.00" d=" M 78.31 42.19 C 80.85 41.11 82.94 42.82 84.13 44.93 C 81.32 44.57 78.51 44.10 75.72 43.59 C 76.58 43.13 77.44 42.66 78.31 42.19 Z" />
</g>
<g id="#2c221eff">
<path fill="#2c221e" opacity="1.00" d=" M 56.85 44.89 C 57.45 41.15 58.40 46.43 59.79 47.08 C 58.98 49.30 56.16 46.50 56.85 44.89 Z" />
</g>
<g id="#949495ff">
<path fill="#949495" opacity="1.00" d=" M 42.90 45.91 C 44.98 46.85 47.55 47.37 49.12 49.07 C 46.40 49.55 43.98 48.52 42.90 45.91 Z" />
</g>
<g id="#5a595aff">
<path fill="#5a595a" opacity="1.00" d=" M 38.02 46.95 C 40.93 48.37 39.39 51.75 38.27 54.10 C 38.21 52.32 38.08 48.74 38.02 46.95 Z" />
</g>
<g id="#ced0d0ff">
<path fill="#ced0d0" opacity="1.00" d=" M 66.24 47.24 C 68.17 46.87 69.37 50.08 71.06 51.09 C 68.86 51.97 63.15 49.29 66.24 47.24 Z" />
</g>
<g id="#babcbdff">
<path fill="#babcbd" opacity="1.00" d=" M 76.23 47.20 C 79.75 45.67 77.42 51.28 74.91 50.00 C 72.55 50.44 75.72 47.86 76.23 47.20 Z" />
</g>
<g id="#201916ff">
<path fill="#201916" opacity="1.00" d=" M 51.26 55.17 C 54.79 53.36 59.91 62.29 54.10 61.16 C 50.32 63.81 48.79 72.67 54.64 74.41 C 58.47 77.11 61.46 74.08 64.09 71.92 C 63.49 76.05 59.10 79.02 55.22 79.56 C 50.35 79.59 49.71 73.38 45.37 72.52 C 42.56 72.24 44.26 64.98 45.16 69.91 C 49.46 75.65 49.05 65.48 49.88 62.00 C 49.23 59.50 48.38 56.61 51.26 55.17 M 50.89 74.92 C 51.94 76.98 53.66 78.60 56.14 78.02 C 55.21 75.98 52.90 75.31 50.89 74.92 Z" />
</g>
<g id="#706f6bff">
<path fill="#706f6b" opacity="1.00" d=" M 8.96 61.82 C 9.14 61.53 9.51 60.95 9.69 60.66 C 11.01 60.59 12.12 61.03 13.04 61.96 C 11.66 62.22 10.30 62.17 8.96 61.82 Z" />
</g>
<g id="#a5948bff">
<path fill="#a5948b" opacity="1.00" d=" M 17.91 62.98 C 20.16 57.98 24.02 66.84 24.94 68.97 C 22.53 71.70 23.12 75.51 23.85 78.82 C 20.85 80.59 17.04 82.05 16.90 86.08 C 19.99 83.30 25.73 81.34 25.52 76.61 C 20.87 68.18 30.90 72.98 28.87 76.78 C 28.17 80.09 26.58 83.10 25.61 86.32 C 25.94 91.55 20.84 92.83 17.02 94.96 C 13.99 92.19 9.82 89.04 11.42 84.34 C 13.44 80.01 7.03 78.09 3.93 79.96 C 4.07 74.64 14.87 79.11 9.78 72.14 C 0.10 77.00 5.16 66.01 10.37 69.59 C 14.57 70.08 13.23 81.83 13.98 70.08 C 14.19 66.45 5.63 63.97 12.04 63.09 C 17.23 64.74 17.50 70.85 18.12 74.91 C 23.26 73.01 21.47 65.75 17.91 62.98 Z" />
</g>
<g id="#343332ff">
<path fill="#343332" opacity="1.00" d=" M 98.60 68.94 C 105.43 64.99 114.80 70.91 120.00 63.80 L 120.00 69.88 C 113.89 76.50 105.45 70.71 98.60 68.94 Z" />
</g>
<g id="#95918cff">
<path fill="#95918c" opacity="1.00" d=" M 30.11 72.88 C 33.61 76.68 35.35 81.64 33.64 86.87 C 30.14 90.73 31.44 95.29 33.80 99.36 C 29.79 97.41 29.21 92.09 27.57 88.27 C 32.13 84.22 31.09 78.30 30.11 72.88 Z" />
</g>
<g id="#d8c2b6ff">
<path fill="#d8c2b6" opacity="1.00" d=" M 102.11 73.28 C 108.62 71.46 102.64 80.47 98.94 80.14 C 96.69 77.29 100.49 75.25 102.11 73.28 Z" />
</g>
<g id="#b1ada4ff">
<path fill="#b1ada4" opacity="1.00" d=" M 0.00 73.56 C 0.64 74.86 1.29 76.16 1.94 77.46 C 1.96 79.79 1.51 82.87 4.85 82.02 C 2.48 86.85 10.59 83.84 9.96 89.13 C 11.11 92.79 17.69 95.63 13.31 99.45 C 8.86 99.83 4.43 99.17 0.00 98.91 L 0.00 73.56 Z" />
</g>
<g id="#736d55ff">
<path fill="#736d55" opacity="1.00" d=" M 50.89 74.92 C 52.90 75.31 55.21 75.98 56.14 78.02 C 53.66 78.60 51.94 76.98 50.89 74.92 Z" />
</g>
<g id="#726f68ff">
<path fill="#726f68" opacity="1.00" d=" M 104.18 80.22 C 106.91 73.89 114.40 76.17 120.00 75.09 L 120.00 79.12 C 114.60 79.25 108.65 80.13 105.60 85.13 C 104.29 83.65 101.81 81.97 104.18 80.22 Z" />
</g>
<g id="#d6c4bbff">
<path fill="#d6c4bb" opacity="1.00" d=" M 25.61 86.32 C 26.58 83.10 28.17 80.09 28.87 76.78 C 29.18 80.18 29.32 84.72 25.61 86.32 Z" />
</g>
<g id="#99958bff">
<path fill="#99958b" opacity="1.00" d=" M 105.60 85.13 C 108.65 80.13 114.60 79.25 120.00 79.12 L 120.00 101.80 C 111.81 101.71 118.93 114.50 117.07 120.00 L 113.07 120.00 C 114.03 114.05 114.25 108.01 114.04 101.99 C 113.46 95.55 109.39 90.14 105.60 85.13 Z" />
</g>
<g id="#7d7974ff">
<path fill="#7d7974" opacity="1.00" d=" M 4.85 82.02 C 9.65 78.77 11.76 84.67 9.96 89.13 C 10.59 83.84 2.48 86.85 4.85 82.02 Z" />
</g>
<g id="#5f5d5aff">
<path fill="#5f5d5a" opacity="1.00" d=" M 43.87 81.17 C 45.85 80.47 48.06 82.37 46.33 84.19 C 45.39 83.28 44.59 82.25 43.87 81.17 Z" />
</g>
<g id="#323030ff">
<path fill="#323030" opacity="1.00" d=" M 90.79 83.63 C 101.14 78.37 109.06 93.22 110.15 101.97 C 109.41 101.96 107.93 101.93 107.19 101.91 C 103.50 94.70 99.62 85.40 90.79 83.63 Z" />
</g>
<g id="#201f20ff">
<path fill="#201f20" opacity="1.00" d=" M 85.44 88.64 C 88.48 88.76 88.74 85.15 90.79 83.63 C 99.62 85.40 103.50 94.70 107.19 101.91 C 102.15 101.96 97.13 101.96 92.10 102.04 C 89.09 102.01 86.11 102.03 83.11 101.97 C 81.71 100.14 78.89 98.14 80.34 95.55 C 83.28 94.44 86.00 92.50 85.44 88.64 Z" />
</g>
<g id="#5e564fff">
<path fill="#5e564f" opacity="1.00" d=" M 63.18 84.93 C 64.62 85.07 67.48 85.36 68.91 85.51 C 67.55 86.77 63.48 87.22 63.18 84.93 Z" />
</g>
<g id="#5f5651ff">
<path fill="#5f5651" opacity="1.00" d=" M 80.09 85.49 C 81.52 85.35 84.38 85.07 85.81 84.93 C 85.54 87.24 81.43 86.80 80.09 85.49 Z" />
</g>
<g id="#c0bcb5ff">
<path fill="#c0bcb5" opacity="1.00" d=" M 33.80 99.36 C 31.44 95.29 30.14 90.73 33.64 86.87 C 34.70 91.65 40.20 91.91 44.15 92.21 C 44.38 97.34 39.13 102.57 33.80 99.36 Z" />
</g>
<g id="#888888ff">
<path fill="#888888" opacity="1.00" d=" M 60.85 88.05 C 62.73 88.35 67.02 86.66 65.99 90.01 C 63.98 90.15 61.63 90.35 60.85 88.05 Z" />
</g>
<g id="#8f9091ff">
<path fill="#8f9091" opacity="1.00" d=" M 57.08 88.92 C 58.63 92.71 61.28 95.95 66.24 94.03 C 63.88 94.88 63.46 97.28 65.27 98.97 C 62.70 98.88 60.63 99.60 59.09 101.12 L 58.55 101.90 C 57.90 101.91 56.59 101.94 55.94 101.95 C 55.97 97.59 56.29 93.21 57.08 88.92 Z" />
</g>
<g id="#6d6d6dff">
<path fill="#6d6d6d" opacity="1.00" d=" M 58.69 89.13 C 60.61 92.68 68.47 89.51 66.07 93.42 C 62.97 93.35 59.49 92.65 58.69 89.13 Z" />
</g>
<g id="#828282ff">
<path fill="#828282" opacity="1.00" d=" M 66.07 93.42 C 69.93 88.72 71.90 95.06 66.24 94.03 L 66.07 93.42 Z" />
</g>
<g id="#af9c96ff">
<path fill="#af9c96" opacity="1.00" d=" M 65.94 95.91 C 69.81 96.00 73.63 97.69 74.22 101.93 C 73.42 101.94 71.81 101.97 71.01 101.98 C 69.28 99.98 67.57 97.99 65.94 95.91 Z" />
</g>
<g id="#8d8a85ff">
<path fill="#8d8a85" opacity="1.00" d=" M 0.00 98.91 C 4.43 99.17 8.86 99.83 13.31 99.45 C 13.21 100.08 13.01 101.33 12.91 101.95 C 8.61 101.99 4.30 102.00 0.00 102.01 L 0.00 98.91 Z" />
</g>
<g id="#525256ff">
<path fill="#525256" opacity="1.00" d=" M 65.27 98.97 C 69.69 102.44 61.49 100.61 59.09 101.12 C 60.63 99.60 62.70 98.88 65.27 98.97 Z" />
</g>
<g id="#f0f0efff">
<path fill="#f0f0ef" opacity="1.00" d=" M 0.00 102.01 C 4.30 102.00 8.61 101.99 12.91 101.95 C 14.72 101.97 18.34 102.01 20.15 102.03 C 19.87 103.68 20.19 105.65 18.82 106.90 C 17.54 107.22 13.82 105.18 15.13 107.71 C 21.42 110.53 12.91 110.71 13.97 114.85 C 15.47 114.89 18.47 114.98 19.97 115.02 C 20.17 115.33 20.57 115.94 20.77 116.24 C 21.09 116.61 21.73 117.35 22.05 117.73 L 22.71 118.08 C 23.94 118.74 25.19 119.37 26.44 120.00 L 0.00 120.00 L 0.00 102.01 M 5.97 108.23 C 4.16 107.92 4.14 112.07 5.94 111.80 C 4.47 115.42 13.35 117.33 12.90 114.19 C 7.07 117.02 4.48 108.64 9.11 106.68 C 10.29 108.20 14.74 106.48 12.26 105.07 C 9.68 104.56 6.50 105.30 5.97 108.23 Z" />
</g>
<g id="#c9cacaff">
<path fill="#c9caca" opacity="1.00" d=" M 20.15 102.03 C 27.88 101.95 35.60 101.98 43.32 102.14 C 41.96 104.99 37.77 105.01 37.83 108.88 C 37.80 110.99 37.91 113.19 38.84 115.14 C 45.80 116.03 40.21 118.19 36.63 120.00 L 26.44 120.00 C 25.19 119.37 23.94 118.74 22.71 118.08 C 21.96 112.74 32.18 116.58 27.94 109.29 C 27.05 107.80 25.32 108.04 23.84 107.98 C 18.83 106.58 21.41 113.20 20.77 116.24 C 20.57 115.94 20.17 115.33 19.97 115.02 C 20.35 111.57 19.68 106.94 15.13 107.71 C 13.82 105.18 17.54 107.22 18.82 106.90 C 20.19 105.65 19.87 103.68 20.15 102.03 M 30.10 107.86 C 30.44 109.91 28.86 114.36 30.82 114.90 C 30.62 112.55 33.03 109.13 30.10 107.86 M 35.31 108.34 C 34.76 110.14 34.19 113.50 35.69 114.66 C 36.24 112.86 36.81 109.50 35.31 108.34 Z" />
</g>
<g id="#bcbcbbff">
<path fill="#bcbcbb" opacity="1.00" d=" M 43.32 102.14 C 47.53 102.01 51.73 102.03 55.94 101.95 C 56.59 101.94 57.90 101.91 58.55 101.90 C 58.68 104.46 59.80 106.57 62.00 107.92 C 56.66 106.57 56.05 110.34 57.01 115.00 C 60.89 115.96 57.98 109.17 60.91 108.98 C 61.43 111.68 63.04 118.18 64.05 112.94 C 66.27 113.58 68.82 115.07 67.93 117.80 C 65.40 120.33 60.61 116.21 59.47 120.00 L 36.63 120.00 C 40.21 118.19 45.80 116.03 38.84 115.14 C 48.62 116.26 33.90 112.20 41.08 109.11 C 45.49 107.13 39.67 108.23 37.83 108.88 C 37.77 105.01 41.96 104.99 43.32 102.14 M 44.28 112.68 C 44.46 116.40 50.64 116.26 51.14 112.82 C 51.66 113.69 52.26 114.50 52.92 115.27 C 52.90 113.46 58.46 106.22 53.04 107.97 C 51.50 108.09 51.90 110.15 51.36 111.19 C 51.56 105.61 42.27 108.01 44.28 112.68 Z" />
</g>
<g id="#9e9a98ff">
<path fill="#9e9a98" opacity="1.00" d=" M 58.55 101.90 C 59.12 101.91 60.27 101.94 60.84 101.96 C 58.04 107.67 69.18 103.90 69.20 109.85 C 72.13 115.52 61.63 106.02 64.05 112.94 C 63.54 111.68 62.51 109.17 62.00 107.92 C 59.80 106.57 58.68 104.46 58.55 101.90 Z" />
</g>
<g id="#d7cfcbff">
<path fill="#d7cfcb" opacity="1.00" d=" M 60.84 101.96 C 62.17 101.97 63.50 102.00 64.83 102.04 C 68.49 103.23 70.57 106.52 73.07 109.17 C 72.72 106.68 71.83 104.33 71.01 101.98 C 71.81 101.97 73.42 101.94 74.22 101.93 L 75.08 101.97 C 75.79 104.47 76.37 107.06 77.85 109.25 C 77.70 107.48 77.38 105.73 77.19 103.97 C 82.33 101.77 84.69 112.33 78.81 111.73 C 79.55 112.94 80.50 114.01 81.55 114.96 C 83.18 116.40 84.87 117.84 85.54 120.00 L 59.47 120.00 C 60.61 116.21 65.40 120.33 67.93 117.80 C 68.82 115.07 66.27 113.58 64.05 112.94 C 61.63 106.02 72.13 115.52 69.20 109.85 C 69.18 103.90 58.04 107.67 60.84 101.96 Z" />
</g>
<g id="#a19a99ff">
<path fill="#a19a99" opacity="1.00" d=" M 64.83 102.04 C 66.89 102.04 68.95 101.99 71.01 101.98 C 71.83 104.33 72.72 106.68 73.07 109.17 C 70.57 106.52 68.49 103.23 64.83 102.04 Z" />
</g>
<g id="#888686ff">
<path fill="#888686" opacity="1.00" d=" M 75.08 101.97 C 77.76 101.97 80.43 101.98 83.11 101.97 C 86.11 102.03 89.09 102.01 92.10 102.04 C 94.27 110.56 87.20 112.44 81.55 114.96 C 80.50 114.01 79.55 112.94 78.81 111.73 C 84.69 112.33 82.33 101.77 77.19 103.97 C 77.38 105.73 77.70 107.48 77.85 109.25 C 76.37 107.06 75.79 104.47 75.08 101.97 Z" />
</g>
<g id="#777676ff">
<path fill="#777676" opacity="1.00" d=" M 92.10 102.04 C 97.13 101.96 102.15 101.96 107.19 101.91 C 107.93 101.93 109.41 101.96 110.15 101.97 L 111.09 102.02 C 111.81 108.05 111.81 114.15 109.99 120.00 L 85.54 120.00 C 84.87 117.84 83.18 116.40 81.55 114.96 C 87.20 112.44 94.27 110.56 92.10 102.04 Z" />
</g>
<g id="#565655ff">
<path fill="#565655" opacity="1.00" d=" M 111.09 102.02 C 111.83 102.01 113.30 102.00 114.04 101.99 C 114.25 108.01 114.03 114.05 113.07 120.00 L 109.99 120.00 C 111.81 114.15 111.81 108.05 111.09 102.02 Z" />
</g>
<g id="#b1aca6ff">
<path fill="#b1aca6" opacity="1.00" d=" M 117.07 120.00 C 118.93 114.50 111.81 101.71 120.00 101.80 L 120.00 120.00 L 117.07 120.00 Z" />
</g>
<g id="#3c3c3cff">
<path fill="#3c3c3c" opacity="1.00" d=" M 5.97 108.23 C 6.50 105.30 9.68 104.56 12.26 105.07 C 11.20 105.58 10.05 105.94 9.11 106.68 C 4.48 108.64 7.07 117.02 12.90 114.19 C 13.35 117.33 4.47 115.42 5.94 111.80 C 6.02 110.61 6.03 109.42 5.97 108.23 Z" />
<path fill="#3c3c3c" opacity="1.00" d=" M 15.13 107.71 C 19.68 106.94 20.35 111.57 19.97 115.02 C 18.47 114.98 15.47 114.89 13.97 114.85 C 12.91 110.71 21.42 110.53 15.13 107.71 M 16.22 112.04 C 12.52 116.00 21.69 112.66 16.22 112.04 Z" />
</g>
<g id="#929292ff">
<path fill="#929292" opacity="1.00" d=" M 12.26 105.07 C 14.74 106.48 10.29 108.20 9.11 106.68 C 10.05 105.94 11.20 105.58 12.26 105.07 Z" />
</g>
<g id="#949494ff">
<path fill="#949494" opacity="1.00" d=" M 5.94 111.80 C 4.14 112.07 4.16 107.92 5.97 108.23 C 6.03 109.42 6.02 110.61 5.94 111.80 Z" />
</g>
<g id="#6e6e6eff">
<path fill="#6e6e6e" opacity="1.00" d=" M 20.77 116.24 C 21.41 113.20 18.83 106.58 23.84 107.98 L 24.52 108.51 C 24.20 108.90 23.55 109.68 23.23 110.06 C 19.97 106.03 22.59 115.69 22.05 117.73 C 21.73 117.35 21.09 116.61 20.77 116.24 Z" />
</g>
<g id="#272727ff">
<path fill="#272727" opacity="1.00" d=" M 23.84 107.98 C 25.32 108.04 27.05 107.80 27.94 109.29 C 32.18 116.58 21.96 112.74 22.71 118.08 L 22.05 117.73 C 22.59 115.69 19.97 106.03 23.23 110.06 C 20.83 118.12 31.54 111.37 24.52 108.51 L 23.84 107.98 Z" />
</g>
<g id="#090909ff">
<path fill="#090909" opacity="1.00" d=" M 30.10 107.86 C 33.03 109.13 30.62 112.55 30.82 114.90 C 28.86 114.36 30.44 109.91 30.10 107.86 Z" />
</g>
<g id="#040404ff">
<path fill="#040404" opacity="1.00" d=" M 35.31 108.34 C 36.81 109.50 36.24 112.86 35.69 114.66 C 34.19 113.50 34.76 110.14 35.31 108.34 Z" />
</g>
<g id="#242424ff">
<path fill="#242424" opacity="1.00" d=" M 37.83 108.88 C 39.67 108.23 45.49 107.13 41.08 109.11 C 33.90 112.20 48.62 116.26 38.84 115.14 C 37.91 113.19 37.80 110.99 37.83 108.88 Z" />
</g>
<g id="#2c2c2cff">
<path fill="#2c2c2c" opacity="1.00" d=" M 44.28 112.68 C 42.27 108.01 51.56 105.61 51.36 111.19 C 51.30 111.60 51.20 112.41 51.14 112.82 C 50.64 116.26 44.46 116.40 44.28 112.68 M 47.22 109.12 C 45.50 110.14 44.92 115.23 47.95 113.96 C 51.18 114.02 50.46 107.96 47.22 109.12 Z" />
</g>
<g id="#808080ff">
<path fill="#808080" opacity="1.00" d=" M 51.36 111.19 C 51.90 110.15 51.50 108.09 53.04 107.97 C 53.01 109.79 52.95 113.45 52.92 115.27 C 52.26 114.50 51.66 113.69 51.14 112.82 C 51.20 112.41 51.30 111.60 51.36 111.19 Z" />
</g>
<g id="#1a1a1aff">
<path fill="#1a1a1a" opacity="1.00" d=" M 53.04 107.97 C 58.46 106.22 52.90 113.46 52.92 115.27 C 52.95 113.45 53.01 109.79 53.04 107.97 Z" />
</g>
<g id="#464442ff">
<path fill="#464442" opacity="1.00" d=" M 57.01 115.00 C 56.05 110.34 56.66 106.57 62.00 107.92 C 62.51 109.17 63.54 111.68 64.05 112.94 C 63.04 118.18 61.43 111.68 60.91 108.98 C 57.98 109.17 60.89 115.96 57.01 115.00 Z" />
</g>
<g id="#d0d0d0ff">
<path fill="#d0d0d0" opacity="1.00" d=" M 24.52 108.51 C 31.54 111.37 20.83 118.12 23.23 110.06 C 23.55 109.68 24.20 108.90 24.52 108.51 Z" />
</g>
<g id="#adadadff">
<path fill="#adadad" opacity="1.00" d=" M 47.22 109.12 C 50.46 107.96 51.18 114.02 47.95 113.96 C 44.92 115.23 45.50 110.14 47.22 109.12 Z" />
</g>
<g id="#dadadaff">
<path fill="#dadada" opacity="1.00" d=" M 16.22 112.04 C 21.69 112.66 12.52 116.00 16.22 112.04 Z" />
</g>
</svg>
